<svg xmlns="http://www.w3.org/2000/svg" width="19" height="14.82" viewBox="0 0 19 14.82">
  <g id="iconfinder_twin_bed_1642856" transform="translate(-43.5 -68.5)">
    <path id="Caminho_41" data-name="Caminho 41" d="M59.5,137H46.706A2.6,2.6,0,0,0,44,139.471v3.713c0,.171.267.385.437.385H61.765c.171,0,.235-.214.235-.385v-3.713A2.426,2.426,0,0,0,59.5,137Z" transform="translate(0 -62.199)" fill="none" stroke="#fff" stroke-linecap="round" stroke-linejoin="round" stroke-miterlimit="10" stroke-width="1"/>
    <path id="Caminho_42" data-name="Caminho 42" d="M62,173.309a.309.309,0,0,0-.309-.309H44.309a.309.309,0,0,0-.309.309v2.879a.309.309,0,0,0,.309.309H61.691a.309.309,0,0,0,.309-.309Z" transform="translate(0 -95.128)" fill="none" stroke="#fff" stroke-linecap="round" stroke-linejoin="round" stroke-miterlimit="10" stroke-width="1"/>
    <path id="Caminho_43" data-name="Caminho 43" d="M77.844,73.863V69.227c0-.171-.076-.227-.247-.227H63.364c-.171,0-.364.056-.364.227v4.636" transform="translate(-17.379)" fill="none" stroke="#fff" stroke-linecap="round" stroke-linejoin="round" stroke-miterlimit="10" stroke-width="1"/>
    <line id="Linha_10" data-name="Linha 10" y2="3.071" transform="translate(44 79.749)" fill="none" stroke="#fff" stroke-linecap="round" stroke-linejoin="round" stroke-miterlimit="10" stroke-width="1"/>
    <line id="Linha_11" data-name="Linha 11" y2="3.071" transform="translate(62 79.749)" fill="none" stroke="#fff" stroke-linecap="round" stroke-linejoin="round" stroke-miterlimit="10" stroke-width="1"/>
    <path id="Caminho_44" data-name="Caminho 44" d="M162.549,106.136a9.133,9.133,0,0,1,.164-1.574.258.258,0,0,0-.247-.26,8.686,8.686,0,0,1-1.52.157,9.706,9.706,0,0,1-1.6-.168.245.245,0,0,0-.247.245,8.8,8.8,0,0,1,.164,1.6" transform="translate(-105.28 -32.281)" fill="none" stroke="#fff" stroke-linecap="round" stroke-linejoin="round" stroke-miterlimit="10" stroke-width="1"/>
    <path id="Caminho_45" data-name="Caminho 45" d="M103.357,106.136a9.138,9.138,0,0,1,.164-1.574.258.258,0,0,0-.246-.26,8.688,8.688,0,0,1-1.52.157,9.706,9.706,0,0,1-1.6-.168.245.245,0,0,0-.246.245,8.812,8.812,0,0,1,.164,1.6" transform="translate(-51.138 -32.281)" fill="none" stroke="#fff" stroke-linecap="round" stroke-linejoin="round" stroke-miterlimit="10" stroke-width="1"/>
  </g>
</svg>
