<svg xmlns="http://www.w3.org/2000/svg" width="21.6" height="18.9" viewBox="0 0 21.6 18.9">
  <path id="quote-left" d="M19.575,41.45H16.2v-2.7a2.7,2.7,0,0,1,2.7-2.7h.337a1.01,1.01,0,0,0,1.012-1.012V33.012A1.01,1.01,0,0,0,19.237,32H18.9a6.748,6.748,0,0,0-6.75,6.75V48.875A2.026,2.026,0,0,0,14.175,50.9h5.4A2.026,2.026,0,0,0,21.6,48.875v-5.4A2.026,2.026,0,0,0,19.575,41.45Zm-12.15,0H4.05v-2.7a2.7,2.7,0,0,1,2.7-2.7h.337A1.01,1.01,0,0,0,8.1,35.037V33.012A1.01,1.01,0,0,0,7.087,32H6.75A6.748,6.748,0,0,0,0,38.75V48.875A2.026,2.026,0,0,0,2.025,50.9h5.4A2.026,2.026,0,0,0,9.45,48.875v-5.4A2.026,2.026,0,0,0,7.425,41.45Z" transform="translate(0 -32)" fill="#ff3d42"/>
</svg>
