<?xml version="1.0" encoding="utf-8"?>
<!DOCTYPE svg PUBLIC "-//W3C//DTD SVG 1.1//EN" "http://www.w3.org/Graphics/SVG/1.1/DTD/svg11.dtd">
<svg version="1.1" id="Teaser-Graphic-Default" xmlns="http://www.w3.org/2000/svg" xmlns:xlink="http://www.w3.org/1999/xlink" x="0px" y="0px"
	 width="810px" height="810px" viewBox="0 0 810 810" enable-background="new 0 0 810 810" xml:space="preserve">
<path fill="#F4EDED" d="M2065.106,874.977h81.639l199.727-351.5l19.35,34.051l-180.379,317.449h35.494l162.631-286.215
	l162.631,286.215h35.496l-180.378-317.449l19.349-34.053l199.727,351.502h81.639l-240.546-423.341l196.977-346.659h-35.497
	L2443.737,420.4l-19.349-34.051l159.88-281.373h-81.641l-119.059,209.534l-119.061-209.534h-81.64L2342.75,386.35l-19.351,34.053
	L2144.17,104.977h-35.495l196.977,346.66L2065.106,874.977z M2383.569,458.189l19.349,34.051l-19.351,34.053l-19.347-34.051
	L2383.569,458.189z"/>
<g opacity="0.5">
	<path fill="#F2F2F1" d="M-1137.102-1437.104c1.323,8.352,4.96,15.547,10.912,21.592c5.952,6.046,13.004,10.933,21.163,14.667
		c8.153,3.736,16.863,6.43,26.122,8.076c9.259,1.648,17.855,2.254,25.792,1.811c16.533-0.664,30.694-4.295,42.49-10.898
		c11.79-6.602,21.492-15.188,29.098-25.755c7.605-10.566,13.169-22.564,16.699-35.996c3.523-13.428,5.29-27.295,5.29-41.607
		c0-8.363-0.388-17.498-1.157-27.408c-0.775-9.909-2.372-19.814-4.794-29.723c-2.428-9.905-6.009-19.428-10.746-28.562
		c-4.744-9.134-10.969-17.281-18.683-24.438c-7.719-7.15-17.251-12.818-28.603-17.003c-11.356-4.186-24.965-6.278-40.836-6.278
		c-5.735,0-12.565,0.553-20.501,1.654c-7.936,1.105-16.038,2.645-24.304,4.629c-8.267,1.984-16.368,4.464-24.304,7.44
		c-7.936,2.976-14.771,6.339-20.501,10.085l-18.848-17.525l-1.653-216.915h175.913c12.782,0,23.477-0.879,32.074-2.646
		c8.598-1.761,15.484-4.407,20.667-7.936c5.176-3.524,8.871-8.044,11.077-13.558c2.201-5.507,3.307-12.121,3.307-19.839h18.848
		l-3.968,89.61l-226.835,4.629l0.331,148.799c11.021-4.407,25.13-8.648,42.325-12.73c17.195-4.076,35.82-6.117,55.882-6.117
		c27.776,0,51.527,4.464,71.258,13.391c19.726,8.929,35.819,20.615,48.277,35.051c12.451,14.441,21.602,30.7,27.444,48.773
		c5.84,18.078,8.762,36.264,8.762,54.559c0,25.129-4.576,47.232-13.721,66.299c-9.15,19.068-21.385,35.049-36.704,47.944
		c-15.325,12.898-33.015,22.602-53.071,29.1c-20.062,6.5-41.116,9.756-63.157,9.756c-21.607,0-40.894-2.926-57.866-8.764
		c-16.978-5.84-31.304-13.277-42.986-22.32c-11.686-9.035-20.615-19.013-26.783-29.925c-6.174-10.912-9.259-21.326-9.259-31.248
		c0-10.137,2.645-18.791,7.936-25.957c5.291-7.16,13.004-10.963,23.146-11.406c6.169-0.217,11.294,0.66,15.376,2.639
		c4.076,1.98,7.326,4.506,9.754,7.58c2.423,3.08,4.134,6.484,5.125,10.219c0.993,3.734,1.488,7.141,1.488,10.215
		c0,4.396-0.661,8.902-1.984,13.516S-1134.901-1440.838-1137.102-1437.104z"/>
</g>
<g opacity="0.5">
	<path fill="#F2F2F1" d="M-719.177-1352.53c6.014-0.461,10.93-1.85,14.748-4.164c3.816-2.312,6.854-5.406,9.109-9.283
		c2.254-3.875,3.875-8.441,4.859-13.707c0.98-5.262,1.588-11.131,1.82-17.611l0.521-12.146h-108.619l0.867-17.524l132.736-168.479
		h12.146l-7.113,165.529l35.568,0.52l-1.041,19.954h-35.396l-1.215,29.846c-0.232,4.857-0.52,9.369-0.865,13.533
		c-0.35,4.164-1.102,8.041-2.256,11.625l27.934-1.041l-1.041,14.574h-86.408l0.869-11.625H-719.177z M-686.905-1430.264
		l6.074-115.731h-0.693l-91.961,114.517L-686.905-1430.264z"/>
</g>
<g opacity="0.5">
	<path fill="#F2F2F1" d="M-936.27-1236.12c-1.031,3.094-1.928,5.867-2.7,8.312c-0.771,2.449-1.543,4.707-2.314,6.768
		c-0.771,2.066-1.543,4.062-2.314,5.998c-0.771,1.932-1.609,3.994-2.507,6.186l30.855-1.545v17.164h-73.86v-12.92
		c5.912,0,10.733-1.189,14.463-3.57c3.728-2.381,6.876-5.756,9.45-10.131c2.57-4.375,4.918-9.586,7.039-15.633
		c2.122-6.043,4.532-12.736,7.232-20.07l81.382-221.737h9.449l88.129,225.021c1.158,2.703,2.344,5.951,3.568,9.746
		c1.221,3.795,2.377,7.686,3.471,11.676c1.092,3.988,1.928,7.912,2.508,11.773c0.578,3.859,0.801,7.266,0.674,10.227l26.998-1.545
		v17.164h-90.443v-12.92c7.328-0.127,12.729-1.479,16.199-4.059s5.654-5.736,6.557-9.475c0.896-3.736,0.896-7.73,0-11.984
		c-0.902-4.258-2.059-8.252-3.471-11.992l-13.887-37.121l-102.786,2.32c-2.829,8.123-5.336,15.566-7.521,22.334
		C-932.287-1249.366-934.342-1242.694-936.27-1236.12z M-888.444-1374.897c-6.045,16.971-11.348,31.918-15.911,44.838
		c-4.563,12.92-8.647,24.459-12.245,34.615h91.409l-28.154-75.596l-17.742-48.597h-0.771L-888.444-1374.897z"/>
</g>
<polygon fill="#F2F2F1" points="-770.372,-1787.822 -779.704,-1797.155 -821.614,-1755.246 -863.524,-1797.155 -872.858,-1787.822
	-830.948,-1745.912 -872.858,-1704.002 -863.524,-1694.668 -821.614,-1736.579 -779.704,-1694.668 -770.372,-1704.002
	-812.282,-1745.912 "/>
<g>
	<polygon opacity="0.5" fill="#F0F3F3" points="239.066,-1448.235 222.24,-1477.377 205.417,-1506.516 239.066,-1506.516
		272.714,-1506.516 255.89,-1477.377 	"/>
	<polygon opacity="0.5" fill="#F0F3F3" points="289.732,-1519.569 264.617,-1563.066 239.507,-1606.56 289.732,-1606.56
		339.956,-1606.56 314.842,-1563.066 	"/>
	<polygon opacity="0.5" fill="#F0F3F3" points="-33.602,-1750.902 -58.717,-1794.399 -83.827,-1837.893 -33.602,-1837.893
		16.621,-1837.893 -8.491,-1794.399 	"/>
	<polygon opacity="0.5" fill="#F0F3F3" points="-140.049,-1550.226 -190.059,-1636.837 -240.06,-1723.443 -140.049,-1723.443
		-40.043,-1723.443 -90.048,-1636.837 	"/>
	<polygon opacity="0.5" fill="none" stroke="#F0F3F3" stroke-width="3" stroke-miterlimit="10" points="103.952,-1518.759
		61.833,-1591.703 19.722,-1664.644 103.952,-1664.644 188.177,-1664.644 146.062,-1591.703 	"/>
	<polygon opacity="0.5" fill="#F0F3F3" points="202.414,-1639.227 234.844,-1583.064 267.267,-1526.904 202.414,-1526.904
		137.566,-1526.904 169.992,-1583.064 	"/>
	<polygon opacity="0.5" fill="#F0F3F3" points="-106.253,-1854.56 -73.823,-1798.398 -41.4,-1742.238 -106.253,-1742.238
		-171.101,-1742.238 -138.675,-1798.398 	"/>
	<polygon opacity="0.5" fill="#F0F3F3" points="-23.921,-1692.894 19.288,-1618.064 62.487,-1543.237 -23.921,-1543.237
		-110.323,-1543.237 -67.119,-1618.064 	"/>
</g>
<image overflow="visible" width="1439" height="1056" xlink:href="../../../../../../../../../../../Users/lisanne/Desktop/Bildschirmfoto 2016-03-24 um 14.45.24.png"  transform="matrix(1 0 0 1 1522.1528 -1930.8926)">
</image>
<image overflow="visible" width="1020" height="858" xlink:href="../../../../../../../../../../../Users/lisanne/Desktop/Bildschirmfoto 2016-03-24 um 14.45.30.png"  transform="matrix(1 0 0 1 1316.9751 -1831.8926)">
</image>
<g>
	<polygon fill="none" stroke="#FFFFFF" stroke-width="3" stroke-miterlimit="10" points="3543.723,250.381 3603.982,354.753
		3664.241,459.123 3543.723,459.123 3423.206,459.123 3483.464,354.753 	"/>
	<circle fill="none" stroke="#FFFFFF" stroke-width="3" stroke-miterlimit="10" cx="3096.932" cy="698.875" r="154"/>
	<circle fill="none" stroke="#FFFFFF" stroke-width="3" stroke-miterlimit="10" cx="3320.358" cy="261.876" r="84"/>

		<line fill="none" stroke="#FFFFFF" stroke-width="3" stroke-miterlimit="10" x1="3202.29" y1="474.876" x2="3305.29" y2="603.876"/>

		<line fill="none" stroke="#FFFFFF" stroke-width="3" stroke-miterlimit="10" x1="3185.319" y1="330.124" x2="3082.319" y2="459.124"/>
</g>
<g>
	<polygon fill="none" stroke="#FFFFFF" stroke-width="5" stroke-miterlimit="10" points="-2235.667,34.621 -2546.67,-395.417
		-2857.673,-825.451 -2329.75,-879.77 -1801.828,-934.087 -2018.748,-449.735 	"/>
	<polygon fill="none" stroke="#FFFFFF" stroke-width="5" stroke-miterlimit="10" points="-2251.804,-103.591 -2492.936,-437.014
		-2734.067,-770.435 -2324.75,-812.55 -1915.433,-854.665 -2083.62,-479.129 	"/>
</g>
<rect x="122.158" y="122.159" transform="matrix(0.7071 -0.7071 0.7071 0.7071 -167.7571 404.9991)" fill="none" stroke="#FFFFFF" stroke-width="7" stroke-miterlimit="10" width="565.684" height="565.684"/>
</svg>
